Coordinates
version=1
nRows=6
nColumns=36
inDegrees=yes

Units are S.I. units (second, meters, Newtons, ...)
If the header above contains a line with 'inDegrees', this indicates whether rotational values are in degrees (yes) or radians (no).

endheader
time	pelvis_tilt	pelvis_list	pelvis_rotation	pelvis_tx	pelvis_ty	pelvis_tz	hip_flexion_r	hip_adduction_r	hip_rotation_r	knee_angle_r	knee_angle_r_beta	ankle_angle_r	subtalar_angle_r	mtp_angle_r	hip_flexion_l	hip_adduction_l	hip_rotation_l	knee_angle_l	knee_angle_l_beta	ankle_angle_l	subtalar_angle_l	mtp_angle_l	lumbar_extension	lumbar_bending	lumbar_rotation	arm_flex_r	arm_add_r	arm_rot_r	elbow_flex_r	pro_sup_r	arm_flex_l	arm_add_l	arm_rot_l	elbow_flex_l	pro_sup_l
      0.00000000	      5.73941031	      2.85347143	    175.01633584	      0.23310258	      0.94924553	      0.81671088	     18.75540580	     -2.12158243	      2.24550271	     70.41692044	      1.22900711	     -7.85395689	    -23.62588185	     -7.23095313	     23.89327446	     -1.35778282	      3.22586545	     26.27310658	      0.45855221	     -2.54442125	    -11.65773759	     -7.23095313	    -12.93074076	      1.63852331	      8.26461744	      8.41630968	    -18.01162622	      5.16261431	     32.94881227	     87.98716395	      4.40559236	     -6.33828951	     -8.49972554	     23.32551367	     88.59527148
      0.01666670	      6.62268433	      3.08980381	    172.62883278	      0.22860875	      0.95291948	      0.81702725	     22.02478223	     -1.07261814	      3.72651182	     71.90433510	      1.25496739	     -6.61166069	    -27.17562201	     -7.24687948	     23.48192909	     -2.32050387	      2.11757995	     25.29579967	      0.44149499	     -5.56597395	     -9.73950981	     -7.24687948	    -12.67658476	      1.82360926	     10.08416829	      7.76377498	    -19.14160029	      6.87456315	     33.32222167	     87.68507030	      5.15632785	     -5.77672378	     -9.53150553	     21.93309506	     88.18424716
      0.03333330	      6.02893937	      3.91379102	    172.43490710	      0.22649231	      0.95549363	      0.81553650	     22.70404401	     -0.44705265	      2.93855957	     72.32321271	      1.26227819	     -3.03196780	    -27.10710219	     -7.25520587	     21.79423928	     -3.01119894	      3.40648882	     24.78400296	      0.43256245	     -7.82885502	     -9.67279738	     -7.25520587	    -13.48591736	      2.41547369	     10.52753157	      7.00479974	    -19.55290253	      7.52486169	     33.58878675	     87.36800495	      6.07878216	     -5.59152594	     -9.39973141	     21.42650767	     88.17868320
      0.05000000	      5.75959893	      4.65833938	    172.49573794	      0.22635469	      0.95504976	      0.81380107	     23.64370869	      0.89230232	      2.51389893	     72.18633174	      1.25988916	     -1.26949065	    -27.90600486	     -7.25746911	     20.58656019	     -3.65713097	      3.90788568	     25.04972985	      0.43720026	     -8.57355374	     -9.16802809	     -7.25746911	    -13.24980591	      3.03735085	      9.99971781	      6.22015558	    -19.16395087	      7.72275276	     33.56005905	     87.26296571	      6.51715121	     -5.63061009	     -9.30399307	     21.54460599	     88.16499352
      0.06666670	      5.34129908	      5.65857018	    173.25716204	      0.22882459	      0.95689973	      0.81541188	     24.71945432	      1.71558048	      1.15017686	     70.89261158	      1.23730949	     -1.10676263	    -27.00848607	     -7.26711089	     19.23957230	     -4.45580601	      4.76338322	     25.84212938	      0.45103024	     -7.44422592	     -9.06667818	     -7.26711089	    -13.32532194	      4.45310872	      8.55813135	      5.64193077	    -19.11181351	      8.27729461	     33.55917748	     86.12414603	      7.39551753	     -5.67862799	     -7.57684916	     21.14221072	     88.52087933
      0.08333330	      5.16347326	      6.00998715	    173.63394478	      0.23273082	      0.96138758	      0.81757210	     26.71348085	      1.79502148	      0.37092932	     68.38348569	      1.19351698	     -2.60476938	    -26.24247830	     -7.28019168	     17.98214787	     -4.88824392	      4.40976135	     26.62375039	      0.46467210	     -5.51474099	     -9.42092112	     -7.28019168	    -13.60381244	      5.07600655	      7.19176473	      5.07439912	    -18.82541333	      8.04931514	     33.63740440	     85.00002019	      7.84479983	     -5.81023284	     -7.02296199	     22.33426991	     87.93691099
